<svg width="37" height="28" fill="none" xmlns="http://www.w3.org/2000/svg"><path fill-rule="evenodd" clip-rule="evenodd" d="M11.219.607C5.339 3.64 1.343 8.549.23 14.109c-.283 1.414-.31 4.083-.056 5.464.312 1.691.982 3.376 1.8 4.527 1.14 1.602 1.98 2.365 3.363 3.053 1.268.632 2.057.806 3.637.804 1.59-.002 2.23-.14 3.38-.731 1.366-.703 2.338-1.768 3.118-3.415.502-1.062.691-1.913.685-3.092-.02-3.964-3.017-6.933-7.23-7.164-1.154-.063-1.862.038-2.746.392l-.593.237.069-.452c.22-1.452.879-3.33 1.622-4.615 1.282-2.218 3.498-4.361 6.1-5.9.505-.298.906-.57.89-.603-.075-.167-1.79-2.608-1.832-2.61-.027 0-.575.27-1.22.603zm20.828-.02C25.46 4.022 21.25 9.742 20.839 15.81c-.287 4.235.934 7.737 3.542 10.152 2.695 2.496 7.495 2.74 10.023.508.984-.868 2.014-2.585 2.37-3.951.832-3.185-.696-6.56-3.655-8.074-1.957-1.001-4.405-1.197-6.17-.493-.308.123-.56.203-.56.178 0-.026.088-.474.195-.997.829-4.027 3.33-7.303 7.536-9.868.523-.32.95-.601.95-.626 0-.082-1.791-2.64-1.847-2.639-.03 0-.56.265-1.176.587z" fill="#152124"/></svg>